<?xml version="1.0" encoding="utf-8"?>
<!-- Generator: Adobe Illustrator 24.0.1, SVG Export Plug-In . SVG Version: 6.00 Build 0)  -->
<svg version="1.1" id="Слой_1" xmlns="http://www.w3.org/2000/svg" xmlns:xlink="http://www.w3.org/1999/xlink" x="0px" y="0px"
	 viewBox="0 0 109 29" style="enable-background:new 0 0 109 29;" xml:space="preserve">
<style type="text/css">
	.st0{fill:#A3A6AE;}
</style>
<title>royal</title>
<desc>Created with Sketch.</desc>
<g>
	<g>
		<path class="st0" d="M8.8,4.6H4.9V2.5h10.1v2.1h-3.9v21.9H8.8V4.6z"/>
		<path class="st0" d="M16.5,8.2h2.3v18.3h-2.3V8.2z M16.5,1.4h2.3V5h-2.3V1.4z"/>
		<path class="st0" d="M22.3,13.5c0-3.2,0-4.4,0-5.2h2.2c0.1,0.5,0.1,1.1,0.1,1.7C25,8.7,26,8,27.6,8c1.4,0,2.4,0.6,2.8,2.1
			C31,9,31.9,8,33.8,8c1.7,0,3.4,0.8,3.4,4.3v14.3h-2.3V12.7c0-1.5-0.3-2.6-1.8-2.6c-1.8,0-2.2,1.7-2.2,3.7v12.8h-2.3V12.9
			c0-2-0.5-2.8-1.8-2.8c-1.8,0-2.2,1.7-2.2,3.9v12.6h-2.3V13.5z"/>
		<path class="st0" d="M42.3,17.8v3.1c0,1.9,0.4,3.9,2.3,3.9c1.8,0,2.2-1.4,2.2-3.3v-0.2H49v0.1c0,2.2-0.5,5.3-4.4,5.3
			c-3.6,0-4.5-2.4-4.5-6.1v-7c0-2.8,1-5.7,4.6-5.7c3.4,0,4.4,2.6,4.4,5.7c0,1,0,3.1,0,4.1H42.3z M46.8,15.9v-2.4
			c0-1.7-0.2-3.6-2.2-3.6c-1.9,0-2.3,1.6-2.3,3.6v2.4H46.8z"/>
		<path class="st0" d="M52.9,19.8v1.4c0,2.4,0.8,3.6,2.6,3.6c1.8,0,2.5-1.2,2.5-4.1c0-2.9-0.6-4-3.2-6c-2.6-2-3.9-3.2-3.9-6.7
			c0-3,0.9-5.9,4.5-5.9c3.4,0,4.4,2.2,4.4,5.4v1.1h-2.3v-1c0-2.1-0.4-3.4-2.2-3.4c-1.8,0-2.2,1.5-2.2,3.5c0,2.4,0.5,3.2,2.7,4.9
			c3.3,2.5,4.3,3.9,4.3,7.9c0,3.4-0.9,6.4-4.9,6.4c-3.7,0-4.9-2.5-4.9-5.6v-1.4H52.9z"/>
		<path class="st0" d="M65.1,1.4v8.5c0.4-1.1,1.5-2,3.3-2c2.7,0,3.5,2,3.5,4.7v13.9h-2.3V13.2c0-1.6-0.2-3.1-2-3.1
			c-2.1,0-2.6,1.6-2.6,4.4v12h-2.3V1.4H65.1z"/>
		<path class="st0" d="M77.2,17.8v3.1c0,1.9,0.4,3.9,2.3,3.9c1.8,0,2.2-1.4,2.2-3.3v-0.2h2.3v0.1c0,2.2-0.5,5.3-4.4,5.3
			c-3.6,0-4.5-2.4-4.5-6.1v-7c0-2.8,1-5.7,4.6-5.7c3.4,0,4.4,2.6,4.4,5.7c0,1,0,3.1,0,4.1H77.2z M81.7,15.9v-2.4
			c0-1.7-0.2-3.6-2.2-3.6c-1.9,0-2.3,1.6-2.3,3.6v2.4H81.7z"/>
		<path class="st0" d="M88.4,17.8v3.1c0,1.9,0.4,3.9,2.3,3.9c1.8,0,2.2-1.4,2.2-3.3v-0.2H95v0.1c0,2.2-0.5,5.3-4.4,5.3
			c-3.6,0-4.5-2.4-4.5-6.1v-7c0-2.8,1-5.7,4.6-5.7c3.4,0,4.4,2.6,4.4,5.7c0,1,0,3.1,0,4.1H88.4z M92.9,15.9v-2.4
			c0-1.7-0.2-3.6-2.2-3.6c-1.9,0-2.3,1.6-2.3,3.6v2.4H92.9z"/>
		<path class="st0" d="M96,8.2h2.1V3.7h2.3v4.5h2.6v2h-2.6v12.6c0,1,0.2,1.9,1.3,1.9c0.3,0,0.9,0,1.2-0.1v1.8
			c-0.5,0.2-1.3,0.3-1.9,0.3c-1.6,0-2.9-0.7-2.9-3.4v-13H96V8.2z"/>
	</g>
</g>
</svg>
