<?xml version="1.0" encoding="utf-8"?>
<!-- Generator: Adobe Illustrator 24.0.1, SVG Export Plug-In . SVG Version: 6.00 Build 0)  -->
<svg version="1.1" id="Слой_1" xmlns="http://www.w3.org/2000/svg" xmlns:xlink="http://www.w3.org/1999/xlink" x="0px" y="0px"
	 viewBox="0 0 25 25" style="enable-background:new 0 0 25 25;" xml:space="preserve">
<style type="text/css">
	.st0{fill:#818080;}
</style>
<title>royal mini</title>
<desc>Created with Sketch.</desc>
<g>
	<g>
		<path class="st0" d="M1.1,4h12v2.3h-12V4z M5.9,5.4h2.4V21H5.9V5.4z"/>
		<path class="st0" d="M17,21c-0.6-0.1-1.2-0.4-1.8-0.6s-1.1-0.6-1.5-1.1l1.4-1.7c0.7,0.5,1.3,0.9,2,1.1s1.3,0.4,1.9,0.4
			c0.9,0,1.7-0.1,2.1-0.4s0.7-0.7,0.7-1.3c0-0.4-0.1-0.7-0.4-0.9s-0.6-0.3-1-0.4c-0.4-0.1-0.9-0.1-1.6-0.2c-0.1,0-0.1,0-0.2,0
			s-0.1,0-0.2,0c0,0-0.1,0-0.1,0s-0.1,0-0.1,0c-0.8-0.1-1.5-0.2-2-0.3s-1-0.5-1.4-0.9s-0.5-1.1-0.5-2s0.2-1.6,0.5-2.1s0.9-1,1.6-1.3
			s1.6-0.4,2.6-0.4c0.6,0,1.2,0.1,1.8,0.2s1.1,0.3,1.6,0.5s1,0.5,1.5,0.9L22.6,12c-0.6-0.4-1.2-0.7-1.8-0.9s-1.2-0.3-1.7-0.3
			c-0.8,0-1.4,0.1-1.8,0.4s-0.6,0.7-0.6,1.2c0,0.3,0.1,0.6,0.3,0.7s0.5,0.3,0.9,0.3s0.9,0.1,1.5,0.1c0,0,0.1,0,0.1,0s0.1,0,0.2,0
			c0,0,0,0,0.1,0s0,0,0.1,0c0.9,0.1,1.6,0.2,2.2,0.3s1.1,0.5,1.5,1s0.6,1.2,0.6,2.2c0,0.9-0.2,1.6-0.6,2.2s-0.9,1-1.7,1.3
			s-1.7,0.4-2.8,0.4C18.3,21.2,17.6,21.1,17,21z"/>
	</g>
</g>
</svg>
